<svg xmlns="http://www.w3.org/2000/svg" xmlns:xlink="http://www.w3.org/1999/xlink" version="1.1" viewBox="704.5 0 591 591"><svg xml:space="preserve" width="2000" height="591" data-version="2" data-id="lg_VhFle4xDKHeCo9cVe5" viewBox="0 0 591 591" x="0" y="0"><rect width="100%" height="100%" fill="transparent"/><g transform="translate(295.5 295.5)scale(6.0962)"><filter id="a" width="144.22%" height="144.22%" x="-22.11%" y="-22.11%"><feGaussianBlur in="SourceAlpha" stdDeviation="1"/><feOffset result="oBlur"/><feFlood flood-color="#000" flood-opacity="1"/><feComposite in2="oBlur" operator="in"/><feMerge><feMergeNode/><feMergeNode in="SourceGraphic"/></feMerge></filter><path fill="#bebebe" d="M50 2.5C23.8 2.5 2.5 23.8 2.5 50S23.8 97.5 50 97.5 97.5 76.2 97.5 50 76.2 2.5 50 2.5m0 85.1c-20.7 0-37.6-16.9-37.6-37.6 0-20.7 16.9-37.6 37.6-37.6.5 0 1 .1 1.5.1-18 3.4-31.7 19.2-31.7 38.2C19.7 67.4 33.4 81 50.1 81c16.7 0 30.4-13.6 30.4-30.4 0-12.1-9.8-21.9-21.9-21.9-12.1 0-21.9 9.8-21.9 21.9 0 7.4 6 13.4 13.4 13.4s13.4-6 13.4-13.4c0-2.7-2.2-4.9-4.9-4.9s-4.9 2.2-4.9 4.9c0 2-1.6 3.5-3.5 3.5-2 0-3.5-1.6-3.5-3.5 0-6.6 5.4-12 12-12s12 5.4 12 12c0 11.3-9.2 20.5-20.5 20.5S29.6 62 29.6 50.7c0-16 13-29 29-29 15.9 0 28.8 12.8 29 28.7-.2 20.5-17 37.2-37.6 37.2" filter="url(#a)" paint-order="stroke" transform="translate(-50 -50)"/></g></svg></svg>